<?xml version="1.0" encoding="UTF-8" standalone="no"?>
<!-- Created with Inkscape (http://www.inkscape.org/) -->

<?xml-stylesheet type="text/css" href="https://philotfarnsworth.github.io/Portfolio/style/logo/fantasydraft.css" ?><svg
   width="468"
   height="60"
   viewBox="0 0 123.825 15.875"
   version="1.1"
   id="svg5"
   inkscape:version="1.1.2 (b8e25be833, 2022-02-05)"
   sodipodi:docname="banner.svg"
   xmlns:inkscape="http://www.inkscape.org/namespaces/inkscape"
   xmlns:sodipodi="http://sodipodi.sourceforge.net/DTD/sodipodi-0.dtd"
   xmlns="http://www.w3.org/2000/svg"
   xmlns:svg="http://www.w3.org/2000/svg"
   xmlns:rdf="http://www.w3.org/1999/02/22-rdf-syntax-ns#"
   xmlns:cc="http://creativecommons.org/ns#"
   xmlns:dc="http://purl.org/dc/elements/1.1/">
  <title
     id="title15496">Fantasy Draft Banner</title>
  <sodipodi:namedview
     id="namedview7"
     pagecolor="#505050"
     bordercolor="#ffffff"
     borderopacity="1"
     inkscape:pageshadow="0"
     inkscape:pageopacity="0"
     inkscape:pagecheckerboard="1"
     inkscape:document-units="mm"
     showgrid="false"
     units="px"
     inkscape:snap-global="false"
     inkscape:zoom="2.5620932"
     inkscape:cx="233.98837"
     inkscape:cy="62.839244"
     inkscape:window-width="1920"
     inkscape:window-height="1009"
     inkscape:window-x="-8"
     inkscape:window-y="-8"
     inkscape:window-maximized="1"
     inkscape:current-layer="TextSVG" />
  <defs
     id="defs2">
    <rect
       x="11.31887"
       y="6.2448939"
       width="444.94869"
       height="43.714258"
       id="rect4460" />
  </defs>
  <g
     inkscape:label="Field"
     inkscape:groupmode="layer"
     id="Field"
     style="display:inline">
    <rect
       style="fill:#008000;stroke:#000064;stroke-width:1;stroke-miterlimit:4;stroke-dasharray:1, 1;stroke-dashoffset:0;stroke-opacity:0.104895;paint-order:markers stroke fill"
       id="rect15056"
       width="124.02538"
       height="16.006607"
       x="-1.1552387e-09"
       y="0" />
  </g>
  <g
     inkscape:groupmode="layer"
     id="layer7"
     inkscape:label="Markings"
     style="display:inline">
    <rect
       style="fill:#ffffff;stroke:none;stroke-width:1;stroke-miterlimit:4;stroke-dasharray:1, 1;stroke-dashoffset:0;stroke-opacity:0.104895;paint-order:markers stroke fill"
       id="rect15851"
       width="0.75"
       height="2"
       x="1"
       y="14" />
    <rect
       style="fill:#ffffff;stroke:none;stroke-width:1;stroke-miterlimit:4;stroke-dasharray:1, 1;stroke-dashoffset:0;stroke-opacity:0.104895;paint-order:markers stroke fill"
       id="rect15851-5"
       width="0.75"
       height="2"
       x="1"
       y="0" />
    <rect
       style="fill:#ffffff;stroke:none;stroke-width:1;stroke-miterlimit:4;stroke-dasharray:1, 1;stroke-dashoffset:0;stroke-opacity:0.104895;paint-order:markers stroke fill"
       id="rect15851-4"
       width="0.75"
       height="2"
       x="3.5"
       y="14" />
    <rect
       style="fill:#ffffff;stroke:none;stroke-width:1;stroke-miterlimit:4;stroke-dasharray:1, 1;stroke-dashoffset:0;stroke-opacity:0.104895;paint-order:markers stroke fill"
       id="rect15851-41"
       width="0.75"
       height="2"
       x="6"
       y="14" />
    <rect
       style="fill:#ffffff;stroke:none;stroke-width:1;stroke-miterlimit:4;stroke-dasharray:1, 1;stroke-dashoffset:0;stroke-opacity:0.104895;paint-order:markers stroke fill"
       id="rect15851-1"
       width="0.75"
       height="2"
       x="8.5"
       y="14" />
    <rect
       style="fill:#ffffff;stroke:none;stroke-width:0.761592;stroke-miterlimit:4;stroke-dasharray:0.761592, 0.761592;stroke-dashoffset:0;stroke-opacity:0.104895;paint-order:markers stroke fill"
       id="rect16025"
       width="0.75"
       height="16"
       x="11"
       y="1.7763568e-15" />
    <rect
       style="fill:#ffffff;stroke:none;stroke-width:1;stroke-miterlimit:4;stroke-dasharray:1, 1;stroke-dashoffset:0;stroke-opacity:0.104895;paint-order:markers stroke fill"
       id="rect15851-0"
       width="0.75"
       height="2"
       x="3.5"
       y="0" />
    <rect
       style="fill:#ffffff;stroke:none;stroke-width:1;stroke-miterlimit:4;stroke-dasharray:1, 1;stroke-dashoffset:0;stroke-opacity:0.104895;paint-order:markers stroke fill"
       id="rect15851-9"
       width="0.75"
       height="2"
       x="6"
       y="0" />
    <rect
       style="fill:#ffffff;stroke:none;stroke-width:1;stroke-miterlimit:4;stroke-dasharray:1, 1;stroke-dashoffset:0;stroke-opacity:0.104895;paint-order:markers stroke fill"
       id="rect15851-7"
       width="0.75"
       height="2"
       x="8.5"
       y="0" />
    <rect
       style="display:inline;fill:#ffffff;stroke:none;stroke-width:1;stroke-miterlimit:4;stroke-dasharray:1, 1;stroke-dashoffset:0;stroke-opacity:0.104895;paint-order:markers stroke fill"
       id="rect15851-03"
       width="0.75"
       height="2"
       x="13.5"
       y="14" />
    <rect
       style="display:inline;fill:#ffffff;stroke:none;stroke-width:1;stroke-miterlimit:4;stroke-dasharray:1, 1;stroke-dashoffset:0;stroke-opacity:0.104895;paint-order:markers stroke fill"
       id="rect15851-5-3"
       width="0.75"
       height="2"
       x="13.5"
       y="0" />
    <rect
       style="display:inline;fill:#ffffff;stroke:none;stroke-width:1;stroke-miterlimit:4;stroke-dasharray:1, 1;stroke-dashoffset:0;stroke-opacity:0.104895;paint-order:markers stroke fill"
       id="rect15851-4-9"
       width="0.75"
       height="2"
       x="16"
       y="14" />
    <rect
       style="display:inline;fill:#ffffff;stroke:none;stroke-width:1;stroke-miterlimit:4;stroke-dasharray:1, 1;stroke-dashoffset:0;stroke-opacity:0.104895;paint-order:markers stroke fill"
       id="rect15851-41-8"
       width="0.75"
       height="2"
       x="18.5"
       y="14" />
    <rect
       style="display:inline;fill:#ffffff;stroke:none;stroke-width:1;stroke-miterlimit:4;stroke-dasharray:1, 1;stroke-dashoffset:0;stroke-opacity:0.104895;paint-order:markers stroke fill"
       id="rect15851-1-6"
       width="0.75"
       height="2"
       x="21"
       y="14" />
    <rect
       style="display:inline;fill:#ffffff;stroke:none;stroke-width:0.761592;stroke-miterlimit:4;stroke-dasharray:0.761592, 0.761592;stroke-dashoffset:0;stroke-opacity:0.104895;paint-order:markers stroke fill"
       id="rect16025-9"
       width="0.75"
       height="16"
       x="23.5"
       y="0" />
    <rect
       style="display:inline;fill:#ffffff;stroke:none;stroke-width:1;stroke-miterlimit:4;stroke-dasharray:1, 1;stroke-dashoffset:0;stroke-opacity:0.104895;paint-order:markers stroke fill"
       id="rect15851-0-1"
       width="0.75"
       height="2"
       x="16"
       y="0" />
    <rect
       style="display:inline;fill:#ffffff;stroke:none;stroke-width:1;stroke-miterlimit:4;stroke-dasharray:1, 1;stroke-dashoffset:0;stroke-opacity:0.104895;paint-order:markers stroke fill"
       id="rect15851-9-4"
       width="0.75"
       height="2"
       x="18.5"
       y="0" />
    <rect
       style="display:inline;fill:#ffffff;stroke:none;stroke-width:1;stroke-miterlimit:4;stroke-dasharray:1, 1;stroke-dashoffset:0;stroke-opacity:0.104895;paint-order:markers stroke fill"
       id="rect15851-7-1"
       width="0.75"
       height="2"
       x="21"
       y="0" />
    <rect
       style="display:inline;fill:#ffffff;stroke:none;stroke-width:1;stroke-miterlimit:4;stroke-dasharray:1, 1;stroke-dashoffset:0;stroke-opacity:0.104895;paint-order:markers stroke fill"
       id="rect15851-3"
       width="0.75"
       height="2"
       x="26"
       y="14.000001" />
    <rect
       style="display:inline;fill:#ffffff;stroke:none;stroke-width:1;stroke-miterlimit:4;stroke-dasharray:1, 1;stroke-dashoffset:0;stroke-opacity:0.104895;paint-order:markers stroke fill"
       id="rect15851-5-6"
       width="0.75"
       height="2"
       x="26"
       y="0" />
    <rect
       style="display:inline;fill:#ffffff;stroke:none;stroke-width:1;stroke-miterlimit:4;stroke-dasharray:1, 1;stroke-dashoffset:0;stroke-opacity:0.104895;paint-order:markers stroke fill"
       id="rect15851-4-92"
       width="0.75"
       height="2"
       x="28.5"
       y="14.000001" />
    <rect
       style="display:inline;fill:#ffffff;stroke:none;stroke-width:1;stroke-miterlimit:4;stroke-dasharray:1, 1;stroke-dashoffset:0;stroke-opacity:0.104895;paint-order:markers stroke fill"
       id="rect15851-41-5"
       width="0.75"
       height="2"
       x="31"
       y="14.000001" />
    <rect
       style="display:inline;fill:#ffffff;stroke:none;stroke-width:1;stroke-miterlimit:4;stroke-dasharray:1, 1;stroke-dashoffset:0;stroke-opacity:0.104895;paint-order:markers stroke fill"
       id="rect15851-1-9"
       width="0.75"
       height="2"
       x="33.5"
       y="14.000001" />
    <rect
       style="display:inline;fill:#ffffff;stroke:none;stroke-width:0.761592;stroke-miterlimit:4;stroke-dasharray:0.761592, 0.761592;stroke-dashoffset:0;stroke-opacity:0.104895;paint-order:markers stroke fill"
       id="rect16025-91"
       width="0.75"
       height="16"
       x="36"
       y="0" />
    <rect
       style="display:inline;fill:#ffffff;stroke:none;stroke-width:1;stroke-miterlimit:4;stroke-dasharray:1, 1;stroke-dashoffset:0;stroke-opacity:0.104895;paint-order:markers stroke fill"
       id="rect15851-0-9"
       width="0.75"
       height="2"
       x="28.5"
       y="0" />
    <rect
       style="display:inline;fill:#ffffff;stroke:none;stroke-width:1;stroke-miterlimit:4;stroke-dasharray:1, 1;stroke-dashoffset:0;stroke-opacity:0.104895;paint-order:markers stroke fill"
       id="rect15851-9-5"
       width="0.75"
       height="2"
       x="31"
       y="0" />
    <rect
       style="display:inline;fill:#ffffff;stroke:none;stroke-width:1;stroke-miterlimit:4;stroke-dasharray:1, 1;stroke-dashoffset:0;stroke-opacity:0.104895;paint-order:markers stroke fill"
       id="rect15851-7-7"
       width="0.75"
       height="2"
       x="33.5"
       y="0" />
    <rect
       style="display:inline;fill:#ffffff;stroke:none;stroke-width:1;stroke-miterlimit:4;stroke-dasharray:1, 1;stroke-dashoffset:0;stroke-opacity:0.104895;paint-order:markers stroke fill"
       id="rect15851-03-0"
       width="0.75"
       height="2"
       x="38.5"
       y="14.000001" />
    <rect
       style="display:inline;fill:#ffffff;stroke:none;stroke-width:1;stroke-miterlimit:4;stroke-dasharray:1, 1;stroke-dashoffset:0;stroke-opacity:0.104895;paint-order:markers stroke fill"
       id="rect15851-5-3-0"
       width="0.75"
       height="2"
       x="38.5"
       y="0" />
    <rect
       style="display:inline;fill:#ffffff;stroke:none;stroke-width:1;stroke-miterlimit:4;stroke-dasharray:1, 1;stroke-dashoffset:0;stroke-opacity:0.104895;paint-order:markers stroke fill"
       id="rect15851-4-9-1"
       width="0.75"
       height="2"
       x="41"
       y="14.000001" />
    <rect
       style="display:inline;fill:#ffffff;stroke:none;stroke-width:1;stroke-miterlimit:4;stroke-dasharray:1, 1;stroke-dashoffset:0;stroke-opacity:0.104895;paint-order:markers stroke fill"
       id="rect15851-41-8-9"
       width="0.75"
       height="2"
       x="43.5"
       y="14.000001" />
    <rect
       style="display:inline;fill:#ffffff;stroke:none;stroke-width:1;stroke-miterlimit:4;stroke-dasharray:1, 1;stroke-dashoffset:0;stroke-opacity:0.104895;paint-order:markers stroke fill"
       id="rect15851-1-6-0"
       width="0.75"
       height="2"
       x="46"
       y="14.000001" />
    <rect
       style="display:inline;fill:#ffffff;stroke:none;stroke-width:0.761592;stroke-miterlimit:4;stroke-dasharray:0.761592, 0.761592;stroke-dashoffset:0;stroke-opacity:0.104895;paint-order:markers stroke fill"
       id="rect16025-9-4"
       width="0.75"
       height="16"
       x="48.5"
       y="0" />
    <rect
       style="display:inline;fill:#ffffff;stroke:none;stroke-width:1;stroke-miterlimit:4;stroke-dasharray:1, 1;stroke-dashoffset:0;stroke-opacity:0.104895;paint-order:markers stroke fill"
       id="rect15851-50"
       width="0.75"
       height="2"
       x="51"
       y="13.999998" />
    <rect
       style="display:inline;fill:#ffffff;stroke:none;stroke-width:1;stroke-miterlimit:4;stroke-dasharray:1, 1;stroke-dashoffset:0;stroke-opacity:0.104895;paint-order:markers stroke fill"
       id="rect15851-5-8"
       width="0.75"
       height="2"
       x="51"
       y="3.5527137e-15" />
    <rect
       style="display:inline;fill:#ffffff;stroke:none;stroke-width:1;stroke-miterlimit:4;stroke-dasharray:1, 1;stroke-dashoffset:0;stroke-opacity:0.104895;paint-order:markers stroke fill"
       id="rect15851-4-4"
       width="0.75"
       height="2"
       x="53.5"
       y="13.999998" />
    <rect
       style="display:inline;fill:#ffffff;stroke:none;stroke-width:1;stroke-miterlimit:4;stroke-dasharray:1, 1;stroke-dashoffset:0;stroke-opacity:0.104895;paint-order:markers stroke fill"
       id="rect15851-41-9"
       width="0.75"
       height="2"
       x="56"
       y="13.999998" />
    <rect
       style="display:inline;fill:#ffffff;stroke:none;stroke-width:1;stroke-miterlimit:4;stroke-dasharray:1, 1;stroke-dashoffset:0;stroke-opacity:0.104895;paint-order:markers stroke fill"
       id="rect15851-1-4"
       width="0.75"
       height="2"
       x="58.5"
       y="13.999998" />
    <rect
       style="display:inline;fill:#ffffff;stroke:none;stroke-width:0.761592;stroke-miterlimit:4;stroke-dasharray:0.761592, 0.761592;stroke-dashoffset:0;stroke-opacity:0.104895;paint-order:markers stroke fill"
       id="rect16025-7"
       width="0.75"
       height="16"
       x="61"
       y="3.5527137e-15" />
    <rect
       style="display:inline;fill:#ffffff;stroke:none;stroke-width:1;stroke-miterlimit:4;stroke-dasharray:1, 1;stroke-dashoffset:0;stroke-opacity:0.104895;paint-order:markers stroke fill"
       id="rect15851-0-6"
       width="0.75"
       height="2"
       x="53.5"
       y="3.5527137e-15" />
    <rect
       style="display:inline;fill:#ffffff;stroke:none;stroke-width:1;stroke-miterlimit:4;stroke-dasharray:1, 1;stroke-dashoffset:0;stroke-opacity:0.104895;paint-order:markers stroke fill"
       id="rect15851-9-6"
       width="0.75"
       height="2"
       x="56"
       y="3.5527137e-15" />
    <rect
       style="display:inline;fill:#ffffff;stroke:none;stroke-width:1;stroke-miterlimit:4;stroke-dasharray:1, 1;stroke-dashoffset:0;stroke-opacity:0.104895;paint-order:markers stroke fill"
       id="rect15851-7-5"
       width="0.75"
       height="2"
       x="58.5"
       y="3.5527137e-15" />
    <rect
       style="display:inline;fill:#ffffff;stroke:none;stroke-width:1;stroke-miterlimit:4;stroke-dasharray:1, 1;stroke-dashoffset:0;stroke-opacity:0.104895;paint-order:markers stroke fill"
       id="rect15851-03-7"
       width="0.75"
       height="2"
       x="63.5"
       y="13.999998" />
    <rect
       style="display:inline;fill:#ffffff;stroke:none;stroke-width:1;stroke-miterlimit:4;stroke-dasharray:1, 1;stroke-dashoffset:0;stroke-opacity:0.104895;paint-order:markers stroke fill"
       id="rect15851-5-3-01"
       width="0.75"
       height="2"
       x="63.5"
       y="3.5527137e-15" />
    <rect
       style="display:inline;fill:#ffffff;stroke:none;stroke-width:1;stroke-miterlimit:4;stroke-dasharray:1, 1;stroke-dashoffset:0;stroke-opacity:0.104895;paint-order:markers stroke fill"
       id="rect15851-4-9-7"
       width="0.75"
       height="2"
       x="66"
       y="13.999998" />
    <rect
       style="display:inline;fill:#ffffff;stroke:none;stroke-width:1;stroke-miterlimit:4;stroke-dasharray:1, 1;stroke-dashoffset:0;stroke-opacity:0.104895;paint-order:markers stroke fill"
       id="rect15851-41-8-2"
       width="0.75"
       height="2"
       x="68.5"
       y="13.999998" />
    <rect
       style="display:inline;fill:#ffffff;stroke:none;stroke-width:1;stroke-miterlimit:4;stroke-dasharray:1, 1;stroke-dashoffset:0;stroke-opacity:0.104895;paint-order:markers stroke fill"
       id="rect15851-1-6-7"
       width="0.75"
       height="2"
       x="71"
       y="13.999998" />
    <rect
       style="display:inline;fill:#ffffff;stroke:none;stroke-width:0.761592;stroke-miterlimit:4;stroke-dasharray:0.761592, 0.761592;stroke-dashoffset:0;stroke-opacity:0.104895;paint-order:markers stroke fill"
       id="rect16025-9-7"
       width="0.75"
       height="16"
       x="73.5"
       y="3.5527137e-15" />
    <rect
       style="display:inline;fill:#ffffff;stroke:none;stroke-width:1;stroke-miterlimit:4;stroke-dasharray:1, 1;stroke-dashoffset:0;stroke-opacity:0.104895;paint-order:markers stroke fill"
       id="rect15851-0-1-4"
       width="0.75"
       height="2"
       x="66"
       y="3.5527137e-15" />
    <rect
       style="display:inline;fill:#ffffff;stroke:none;stroke-width:1;stroke-miterlimit:4;stroke-dasharray:1, 1;stroke-dashoffset:0;stroke-opacity:0.104895;paint-order:markers stroke fill"
       id="rect15851-9-4-7"
       width="0.75"
       height="2"
       x="68.5"
       y="3.5527137e-15" />
    <rect
       style="display:inline;fill:#ffffff;stroke:none;stroke-width:1;stroke-miterlimit:4;stroke-dasharray:1, 1;stroke-dashoffset:0;stroke-opacity:0.104895;paint-order:markers stroke fill"
       id="rect15851-7-1-7"
       width="0.75"
       height="2"
       x="71"
       y="3.5527137e-15" />
    <rect
       style="display:inline;fill:#ffffff;stroke:none;stroke-width:1;stroke-miterlimit:4;stroke-dasharray:1, 1;stroke-dashoffset:0;stroke-opacity:0.104895;paint-order:markers stroke fill"
       id="rect15851-3-6"
       width="0.75"
       height="2"
       x="76"
       y="14.000002" />
    <rect
       style="display:inline;fill:#ffffff;stroke:none;stroke-width:1;stroke-miterlimit:4;stroke-dasharray:1, 1;stroke-dashoffset:0;stroke-opacity:0.104895;paint-order:markers stroke fill"
       id="rect15851-5-6-0"
       width="0.75"
       height="2"
       x="76"
       y="3.5527137e-15" />
    <rect
       style="display:inline;fill:#ffffff;stroke:none;stroke-width:1;stroke-miterlimit:4;stroke-dasharray:1, 1;stroke-dashoffset:0;stroke-opacity:0.104895;paint-order:markers stroke fill"
       id="rect15851-4-92-2"
       width="0.75"
       height="2"
       x="78.5"
       y="14.000002" />
    <rect
       style="display:inline;fill:#ffffff;stroke:none;stroke-width:1;stroke-miterlimit:4;stroke-dasharray:1, 1;stroke-dashoffset:0;stroke-opacity:0.104895;paint-order:markers stroke fill"
       id="rect15851-41-5-4"
       width="0.75"
       height="2"
       x="81"
       y="14.000002" />
    <rect
       style="display:inline;fill:#ffffff;stroke:none;stroke-width:1;stroke-miterlimit:4;stroke-dasharray:1, 1;stroke-dashoffset:0;stroke-opacity:0.104895;paint-order:markers stroke fill"
       id="rect15851-1-9-7"
       width="0.75"
       height="2"
       x="83.5"
       y="14.000002" />
    <rect
       style="display:inline;fill:#ffffff;stroke:none;stroke-width:0.761592;stroke-miterlimit:4;stroke-dasharray:0.761592, 0.761592;stroke-dashoffset:0;stroke-opacity:0.104895;paint-order:markers stroke fill"
       id="rect16025-91-9"
       width="0.75"
       height="16"
       x="86"
       y="3.5527137e-15" />
    <rect
       style="display:inline;fill:#ffffff;stroke:none;stroke-width:1;stroke-miterlimit:4;stroke-dasharray:1, 1;stroke-dashoffset:0;stroke-opacity:0.104895;paint-order:markers stroke fill"
       id="rect15851-0-9-0"
       width="0.75"
       height="2"
       x="78.5"
       y="3.5527137e-15" />
    <rect
       style="display:inline;fill:#ffffff;stroke:none;stroke-width:1;stroke-miterlimit:4;stroke-dasharray:1, 1;stroke-dashoffset:0;stroke-opacity:0.104895;paint-order:markers stroke fill"
       id="rect15851-9-5-6"
       width="0.75"
       height="2"
       x="81"
       y="3.5527137e-15" />
    <rect
       style="display:inline;fill:#ffffff;stroke:none;stroke-width:1;stroke-miterlimit:4;stroke-dasharray:1, 1;stroke-dashoffset:0;stroke-opacity:0.104895;paint-order:markers stroke fill"
       id="rect15851-7-7-0"
       width="0.75"
       height="2"
       x="83.5"
       y="3.5527137e-15" />
    <rect
       style="display:inline;fill:#ffffff;stroke:none;stroke-width:1;stroke-miterlimit:4;stroke-dasharray:1, 1;stroke-dashoffset:0;stroke-opacity:0.104895;paint-order:markers stroke fill"
       id="rect15851-03-0-1"
       width="0.75"
       height="2"
       x="88.5"
       y="14.000002" />
    <rect
       style="display:inline;fill:#ffffff;stroke:none;stroke-width:1;stroke-miterlimit:4;stroke-dasharray:1, 1;stroke-dashoffset:0;stroke-opacity:0.104895;paint-order:markers stroke fill"
       id="rect15851-5-3-0-4"
       width="0.75"
       height="2"
       x="88.5"
       y="3.5527137e-15" />
    <rect
       style="display:inline;fill:#ffffff;stroke:none;stroke-width:1;stroke-miterlimit:4;stroke-dasharray:1, 1;stroke-dashoffset:0;stroke-opacity:0.104895;paint-order:markers stroke fill"
       id="rect15851-4-9-1-3"
       width="0.75"
       height="2"
       x="91"
       y="14.000002" />
    <rect
       style="display:inline;fill:#ffffff;stroke:none;stroke-width:1;stroke-miterlimit:4;stroke-dasharray:1, 1;stroke-dashoffset:0;stroke-opacity:0.104895;paint-order:markers stroke fill"
       id="rect15851-41-8-9-5"
       width="0.75"
       height="2"
       x="93.5"
       y="14.000002" />
    <rect
       style="display:inline;fill:#ffffff;stroke:none;stroke-width:1;stroke-miterlimit:4;stroke-dasharray:1, 1;stroke-dashoffset:0;stroke-opacity:0.104895;paint-order:markers stroke fill"
       id="rect15851-1-6-0-5"
       width="0.75"
       height="2"
       x="96"
       y="14.000002" />
    <rect
       style="display:inline;fill:#ffffff;stroke:none;stroke-width:0.761592;stroke-miterlimit:4;stroke-dasharray:0.761592, 0.761592;stroke-dashoffset:0;stroke-opacity:0.104895;paint-order:markers stroke fill"
       id="rect16025-9-4-6"
       width="0.75"
       height="16"
       x="98.5"
       y="3.5527137e-15" />
    <rect
       style="display:inline;fill:#ffffff;stroke:none;stroke-width:1;stroke-miterlimit:4;stroke-dasharray:1, 1;stroke-dashoffset:0;stroke-opacity:0.104895;paint-order:markers stroke fill"
       id="rect15851-0-1-0-2"
       width="0.75"
       height="2"
       x="91"
       y="3.5527137e-15" />
    <rect
       style="display:inline;fill:#ffffff;stroke:none;stroke-width:1;stroke-miterlimit:4;stroke-dasharray:1, 1;stroke-dashoffset:0;stroke-opacity:0.104895;paint-order:markers stroke fill"
       id="rect15851-9-4-6-1"
       width="0.75"
       height="2"
       x="93.5"
       y="3.5527137e-15" />
    <rect
       style="display:inline;fill:#ffffff;stroke:none;stroke-width:1;stroke-miterlimit:4;stroke-dasharray:1, 1;stroke-dashoffset:0;stroke-opacity:0.104895;paint-order:markers stroke fill"
       id="rect15851-7-1-3-7"
       width="0.75"
       height="2"
       x="96"
       y="3.5527137e-15" />
    <rect
       style="display:inline;fill:#ffffff;stroke:none;stroke-width:1;stroke-miterlimit:4;stroke-dasharray:1, 1;stroke-dashoffset:0;stroke-opacity:0.104895;paint-order:markers stroke fill"
       id="rect15851-0-1-0"
       width="0.75"
       height="2"
       x="41"
       y="0" />
    <rect
       style="display:inline;fill:#ffffff;stroke:none;stroke-width:1;stroke-miterlimit:4;stroke-dasharray:1, 1;stroke-dashoffset:0;stroke-opacity:0.104895;paint-order:markers stroke fill"
       id="rect15851-9-4-6"
       width="0.75"
       height="2"
       x="43.5"
       y="0" />
    <rect
       style="display:inline;fill:#ffffff;stroke:none;stroke-width:1;stroke-miterlimit:4;stroke-dasharray:1, 1;stroke-dashoffset:0;stroke-opacity:0.104895;paint-order:markers stroke fill"
       id="rect15851-7-1-3"
       width="0.75"
       height="2"
       x="46"
       y="0" />
    <rect
       style="display:inline;fill:#ffffff;stroke:none;stroke-width:1;stroke-miterlimit:4;stroke-dasharray:1, 1;stroke-dashoffset:0;stroke-opacity:0.104895;paint-order:markers stroke fill"
       id="rect15851-6"
       width="0.75"
       height="2"
       x="101"
       y="14" />
    <rect
       style="display:inline;fill:#ffffff;stroke:none;stroke-width:1;stroke-miterlimit:4;stroke-dasharray:1, 1;stroke-dashoffset:0;stroke-opacity:0.104895;paint-order:markers stroke fill"
       id="rect15851-5-7"
       width="0.75"
       height="2"
       x="101"
       y="0" />
    <rect
       style="display:inline;fill:#ffffff;stroke:none;stroke-width:1;stroke-miterlimit:4;stroke-dasharray:1, 1;stroke-dashoffset:0;stroke-opacity:0.104895;paint-order:markers stroke fill"
       id="rect15851-4-0"
       width="0.75"
       height="2"
       x="103.5"
       y="14" />
    <rect
       style="display:inline;fill:#ffffff;stroke:none;stroke-width:1;stroke-miterlimit:4;stroke-dasharray:1, 1;stroke-dashoffset:0;stroke-opacity:0.104895;paint-order:markers stroke fill"
       id="rect15851-41-4"
       width="0.75"
       height="2"
       x="106"
       y="14" />
    <rect
       style="display:inline;fill:#ffffff;stroke:none;stroke-width:1;stroke-miterlimit:4;stroke-dasharray:1, 1;stroke-dashoffset:0;stroke-opacity:0.104895;paint-order:markers stroke fill"
       id="rect15851-1-1"
       width="0.75"
       height="2"
       x="108.5"
       y="14" />
    <rect
       style="display:inline;fill:#ffffff;stroke:none;stroke-width:0.761592;stroke-miterlimit:4;stroke-dasharray:0.761592, 0.761592;stroke-dashoffset:0;stroke-opacity:0.104895;paint-order:markers stroke fill"
       id="rect16025-3"
       width="0.75"
       height="16"
       x="111"
       y="0" />
    <rect
       style="display:inline;fill:#ffffff;stroke:none;stroke-width:1;stroke-miterlimit:4;stroke-dasharray:1, 1;stroke-dashoffset:0;stroke-opacity:0.104895;paint-order:markers stroke fill"
       id="rect15851-0-4"
       width="0.75"
       height="2"
       x="103.5"
       y="0" />
    <rect
       style="display:inline;fill:#ffffff;stroke:none;stroke-width:1;stroke-miterlimit:4;stroke-dasharray:1, 1;stroke-dashoffset:0;stroke-opacity:0.104895;paint-order:markers stroke fill"
       id="rect15851-9-63"
       width="0.75"
       height="2"
       x="106"
       y="0" />
    <rect
       style="display:inline;fill:#ffffff;stroke:none;stroke-width:1;stroke-miterlimit:4;stroke-dasharray:1, 1;stroke-dashoffset:0;stroke-opacity:0.104895;paint-order:markers stroke fill"
       id="rect15851-7-58"
       width="0.75"
       height="2"
       x="108.5"
       y="0" />
    <rect
       style="display:inline;fill:#ffffff;stroke:none;stroke-width:1;stroke-miterlimit:4;stroke-dasharray:1, 1;stroke-dashoffset:0;stroke-opacity:0.104895;paint-order:markers stroke fill"
       id="rect15851-03-76"
       width="0.75"
       height="2"
       x="113.5"
       y="14" />
    <rect
       style="display:inline;fill:#ffffff;stroke:none;stroke-width:1;stroke-miterlimit:4;stroke-dasharray:1, 1;stroke-dashoffset:0;stroke-opacity:0.104895;paint-order:markers stroke fill"
       id="rect15851-5-3-1"
       width="0.75"
       height="2"
       x="113.5"
       y="0" />
    <rect
       style="display:inline;fill:#ffffff;stroke:none;stroke-width:1;stroke-miterlimit:4;stroke-dasharray:1, 1;stroke-dashoffset:0;stroke-opacity:0.104895;paint-order:markers stroke fill"
       id="rect15851-4-9-8"
       width="0.75"
       height="2"
       x="116"
       y="14" />
    <rect
       style="display:inline;fill:#ffffff;stroke:none;stroke-width:1;stroke-miterlimit:4;stroke-dasharray:1, 1;stroke-dashoffset:0;stroke-opacity:0.104895;paint-order:markers stroke fill"
       id="rect15851-41-8-8"
       width="0.75"
       height="2"
       x="118.5"
       y="14" />
    <rect
       style="display:inline;fill:#ffffff;stroke:none;stroke-width:1;stroke-miterlimit:4;stroke-dasharray:1, 1;stroke-dashoffset:0;stroke-opacity:0.104895;paint-order:markers stroke fill"
       id="rect15851-1-6-72"
       width="0.75"
       height="2"
       x="121"
       y="14" />
    <rect
       style="display:inline;fill:#ffffff;stroke:none;stroke-width:0.761592;stroke-miterlimit:4;stroke-dasharray:0.761592, 0.761592;stroke-dashoffset:0;stroke-opacity:0.104895;paint-order:markers stroke fill"
       id="rect16025-9-2"
       width="0.75"
       height="16"
       x="123.5"
       y="0" />
    <rect
       style="display:inline;fill:#ffffff;stroke:none;stroke-width:1;stroke-miterlimit:4;stroke-dasharray:1, 1;stroke-dashoffset:0;stroke-opacity:0.104895;paint-order:markers stroke fill"
       id="rect15851-0-1-8"
       width="0.75"
       height="2"
       x="116"
       y="0" />
    <rect
       style="display:inline;fill:#ffffff;stroke:none;stroke-width:1;stroke-miterlimit:4;stroke-dasharray:1, 1;stroke-dashoffset:0;stroke-opacity:0.104895;paint-order:markers stroke fill"
       id="rect15851-9-4-2"
       width="0.75"
       height="2"
       x="118.5"
       y="0" />
    <rect
       style="display:inline;fill:#ffffff;stroke:none;stroke-width:1;stroke-miterlimit:4;stroke-dasharray:1, 1;stroke-dashoffset:0;stroke-opacity:0.104895;paint-order:markers stroke fill"
       id="rect15851-7-1-6"
       width="0.75"
       height="2"
       x="121"
       y="0" />
  </g>
  <g
     inkscape:groupmode="layer"
     id="layer8"
     inkscape:label="TextBacking"
     style="display:inline;opacity:0.7">
    <ellipse
       style="fill:#333333;stroke:none;stroke-width:1;stroke-miterlimit:4;stroke-dasharray:1, 1;stroke-dashoffset:0;stroke-opacity:0.104895;paint-order:markers stroke fill"
       id="path18315"
       cx="28.863525"
       cy="7.3836927"
       rx="21.634735"
       ry="5.3183241" />
    <ellipse
       style="fill:#333333;stroke:none;stroke-width:0.96173;stroke-miterlimit:4;stroke-dasharray:0.96173, 0.96173;stroke-dashoffset:0;stroke-opacity:0.104895;paint-order:markers stroke fill"
       id="path18339"
       cx="96.555984"
       cy="7.3836927"
       rx="15.903338"
       ry="4.6987133" />
  </g>
  <g
     inkscape:groupmode="layer"
     id="TextSVG"
     inkscape:label="Text"
     style="display:inline">
    <g
       aria-label="Draft"
       id="text12767"
       style="font-size:10.8474px;line-height:1.25;text-align:center;text-anchor:middle;fill:#ffeeaa;stroke-width:0.813555">
      <path
         d="m 85.527041,2.1662995 h 1.668423 q 1.615457,0 2.182192,0.1483043 0.57203,0.1483043 0.868639,0.4872855 0.296609,0.3389813 0.370761,0.7574112 0.07415,0.4131334 0.07415,1.6313472 v 3.003162 q 0,1.1546548 -0.111228,1.5466019 -0.105932,0.3866504 -0.376058,0.6091074 -0.270125,0.217159 -0.667369,0.307201 -0.397244,0.08475 -1.197027,0.08475 h -2.812485 z m 2.229861,1.4671532 v 5.6408597 q 0.481988,0 0.593217,-0.190677 0.111228,-0.1959735 0.111228,-1.0540198 v -3.33155 q 0,-0.582624 -0.03708,-0.746818 -0.03708,-0.1641941 -0.169491,-0.2383462 -0.132414,-0.079449 -0.497878,-0.079449 z"
         style="font-family:Impact;-inkscape-font-specification:Impact"
         id="path1071" />
      <path
         d="m 93.599032,3.7129014 -0.08475,0.9216052 q 0.466099,-0.9904608 1.350629,-1.0487232 v 2.4735038 q -0.587921,0 -0.863343,0.1588974 -0.275422,0.1588975 -0.338981,0.4449129 -0.06356,0.2807189 -0.06356,1.3029592 v 2.7754093 h -2.13982 V 3.7129014 Z"
         style="font-family:Impact;-inkscape-font-specification:Impact"
         id="path1073" />
      <path
         d="M 97.253673,6.4353445 H 95.246268 V 5.9639487 q 0,-0.8156736 0.185381,-1.2552899 0.190677,-0.4449129 0.757411,-0.7838941 0.566734,-0.3389813 1.47245,-0.3389813 1.085799,0 1.636643,0.3866505 0.550845,0.3813539 0.662073,0.9427916 0.111224,0.5561411 0.111224,2.2987165 v 3.527524 h -2.081552 v -0.624997 q -0.195974,0.376057 -0.508472,0.566734 -0.307202,0.185381 -0.736225,0.185381 -0.561438,0 -1.032833,-0.312499 -0.4661,-0.317795 -0.4661,-1.3824077 V 8.5963499 q 0,-0.7891907 0.24894,-1.0752061 0.248939,-0.2860154 1.234103,-0.6673693 1.05402,-0.4131334 1.128172,-0.5561411 0.07415,-0.1430077 0.07415,-0.582624 0,-0.5508446 -0.08474,-0.7150386 -0.07945,-0.1694906 -0.270126,-0.1694906 -0.21716,0 -0.270125,0.1430077 -0.05297,0.1377111 -0.05297,0.7256317 z m 0.677962,0.9639779 q -0.513768,0.3760573 -0.598513,0.6302932 -0.07945,0.254236 -0.07945,0.7309283 0,0.545548 0.06885,0.7044454 0.07415,0.1588975 0.286016,0.1588975 0.20127,0 0.259532,-0.1218214 0.06356,-0.127118 0.06356,-0.6567761 z"
         style="font-family:Impact;-inkscape-font-specification:Impact"
         id="path1075" />
      <path
         d="m 103.53542,2.1662995 v 1.0857993 q -0.66207,0 -0.78389,0.063559 -0.11653,0.058262 -0.11653,0.3442778 V 3.882392 h 0.90042 v 1.1122822 h -0.50847 v 5.7467918 h -2.13982 V 4.9946742 h -0.43962 V 3.882392 h 0.43962 q 0,-0.6938522 0.0477,-0.9269018 0.0477,-0.2330496 0.23305,-0.4131334 0.19067,-0.1853804 0.52966,-0.2807188 0.33898,-0.095338 1.05402,-0.095338 z"
         style="font-family:Impact;-inkscape-font-specification:Impact"
         id="path1077" />
      <path
         d="M 106.1996,2.7754064 V 3.882392 h 0.57733 v 1.1122822 h -0.57733 v 3.7605732 q 0,0.6938522 0.0689,0.7733009 0.0741,0.079449 0.59851,0.079449 v 1.133469 h -0.86334 q -0.73093,0 -1.04343,-0.05826 -0.3125,-0.06356 -0.55084,-0.280719 -0.23835,-0.222456 -0.29661,-0.503175 -0.0583,-0.2860154 -0.0583,-1.3347386 V 4.9946742 h -0.4608 V 3.882392 h 0.4608 V 2.7754064 Z"
         style="font-family:Impact;-inkscape-font-specification:Impact"
         id="path1079" />
    </g>
    <g
       aria-label="Fantasy"
       id="text9064"
       style="font-size:10.8848px;line-height:1.25;text-align:center;text-anchor:middle;fill:#ffeeaa;stroke-width:0.816361">
      <path
         d="m 12.005463,1.8303295 h 3.789484 v 1.7220093 h -1.551934 v 1.6316571 h 1.381859 v 1.6369718 h -1.381859 v 3.6140933 h -2.23755 z"
         style="font-family:Impact;-inkscape-font-specification:Impact"
         id="path1056" />
      <path
         d="M 18.191942,6.1140935 H 16.177616 V 5.6410724 q 0,-0.8184859 0.186019,-1.259618 0.191335,-0.4464468 0.760023,-0.7865968 0.568688,-0.34015 1.477527,-0.34015 1.089543,0 1.642286,0.3879836 0.552744,0.3826687 0.664356,0.9460422 0.111611,0.5580585 0.111611,2.3066421 V 10.435061 H 18.930705 V 9.8079099 q -0.196649,0.3773541 -0.510225,0.5686881 -0.308261,0.18602 -0.738763,0.18602 -0.563374,0 -1.036395,-0.313576 -0.467706,-0.3188907 -0.467706,-1.3871743 v -0.579318 q 0,-0.7919117 0.249797,-1.0789132 0.249798,-0.2870016 1.238359,-0.6696703 1.057654,-0.4145579 1.132062,-0.5580586 0.07441,-0.1435008 0.07441,-0.5846328 0,-0.5527438 -0.08504,-0.7175039 -0.07972,-0.170075 -0.271057,-0.170075 -0.217909,0 -0.271057,0.1435007 -0.05315,0.138186 -0.05315,0.7281336 z m 0.6803,0.9673016 q -0.51554,0.3773539 -0.600578,0.6324664 -0.07972,0.2551125 -0.07972,0.7334484 0,0.5474289 0.06909,0.7068742 0.07441,0.1594453 0.287001,0.1594453 0.201964,0 0.260427,-0.1222414 0.06378,-0.1275562 0.06378,-0.6590406 z"
         style="font-family:Impact;-inkscape-font-specification:Impact"
         id="path1058" />
      <path
         d="m 23.942603,3.3822638 -0.0372,0.648411 q 0.233853,-0.3879836 0.568688,-0.579318 0.34015,-0.1966492 0.781282,-0.1966492 0.552744,0 0.903524,0.2604273 0.350779,0.2604274 0.451761,0.6590406 0.100982,0.3932985 0.100982,1.3180813 V 10.435061 H 24.56444 V 5.5507201 q 0,-0.7281336 -0.04783,-0.8875789 -0.04783,-0.1594453 -0.265742,-0.1594453 -0.228538,0 -0.287002,0.1860195 -0.05846,0.1807047 -0.05846,0.9779312 V 10.435061 H 21.758202 V 3.3822638 Z"
         style="font-family:Impact;-inkscape-font-specification:Impact"
         id="path1060" />
      <path
         d="m 29.714523,2.4415365 v 1.1108023 h 0.579318 V 4.668456 h -0.579318 v 3.7735391 q 0,0.6962445 0.06909,0.7759671 0.07441,0.079723 0.600578,0.079723 v 1.1373761 h -0.86632 q -0.733448,0 -1.047024,-0.05846 Q 28.157274,10.31282 27.918106,10.094911 27.678938,9.871688 27.620475,9.5900013 27.562012,9.3029997 27.562012,8.2506607 V 4.668456 H 27.09962 V 3.5523388 h 0.462392 V 2.4415365 Z"
         style="font-family:Impact;-inkscape-font-specification:Impact"
         id="path1062" />
      <path
         d="M 32.68552,6.1140935 H 30.671194 V 5.6410724 q 0,-0.8184859 0.18602,-1.259618 0.191334,-0.4464468 0.760022,-0.7865968 0.568689,-0.34015 1.477527,-0.34015 1.089543,0 1.642287,0.3879836 0.552743,0.3826687 0.664355,0.9460422 0.111612,0.5580585 0.111612,2.3066421 V 10.435061 H 33.424283 V 9.8079099 q -0.196649,0.3773541 -0.510225,0.5686881 -0.308261,0.18602 -0.738763,0.18602 -0.563373,0 -1.036394,-0.313576 -0.467707,-0.3188907 -0.467707,-1.3871743 v -0.579318 q 0,-0.7919117 0.249798,-1.0789132 0.249798,-0.2870016 1.238359,-0.6696703 1.057653,-0.4145579 1.132061,-0.5580586 0.07441,-0.1435008 0.07441,-0.5846328 0,-0.5527438 -0.08504,-0.7175039 -0.07972,-0.170075 -0.271057,-0.170075 -0.217909,0 -0.271058,0.1435007 -0.05315,0.138186 -0.05315,0.7281336 z m 0.6803,0.9673016 q -0.51554,0.3773539 -0.600577,0.6324664 -0.07972,0.2551125 -0.07972,0.7334484 0,0.5474289 0.06909,0.7068742 0.07441,0.1594453 0.287002,0.1594453 0.201964,0 0.260427,-0.1222414 0.06378,-0.1275562 0.06378,-0.6590406 z"
         style="font-family:Impact;-inkscape-font-specification:Impact"
         id="path1064" />
      <path
         d="M 40.636526,5.6357576 H 38.733812 V 5.2530888 q 0,-0.4889656 -0.05846,-0.6165219 -0.05315,-0.132871 -0.276372,-0.132871 -0.180705,0 -0.271057,0.1222414 -0.09035,0.1169265 -0.09035,0.3560945 0,0.3242055 0.04252,0.4783359 0.04783,0.1488156 0.271057,0.3295203 0.228539,0.1807047 0.930098,0.5261696 0.935412,0.4570765 1.227729,0.8610046 0.292316,0.4039282 0.292316,1.1745805 0,0.8610047 -0.223223,1.3021367 -0.223224,0.4358176 -0.749393,0.6749856 -0.520855,0.233853 -1.259618,0.233853 -0.818486,0 -1.403119,-0.255113 Q 36.586615,10.052393 36.368707,9.6165755 36.150798,9.1807583 36.150798,8.2984943 v -0.34015 h 1.902714 v 0.4464469 q 0,0.5686882 0.06909,0.7387632 0.07441,0.170075 0.287002,0.170075 0.228538,0 0.31889,-0.1116117 0.09035,-0.1169266 0.09035,-0.4836508 0,-0.5049101 -0.116927,-0.6324664 Q 38.579682,7.9583443 37.452935,7.3311927 36.506893,6.7997083 36.299614,6.369206 36.092335,5.9333888 36.092335,5.3381263 q 0,-0.8450601 0.223223,-1.2436734 0.223224,-0.4039281 0.754708,-0.6218367 0.536799,-0.2179086 1.243673,-0.2179086 0.70156,0 1.190525,0.1807047 0.494281,0.1753898 0.754708,0.4677062 0.265742,0.2923164 0.318891,0.5421141 0.05846,0.2497976 0.05846,0.781282 z"
         style="font-family:Impact;-inkscape-font-specification:Impact"
         id="path1066" />
      <path
         d="m 45.871648,3.3822638 -0.616522,5.10225 q -0.1435,1.2117844 -0.244482,1.6529162 -0.09567,0.441132 -0.324206,0.728134 -0.228538,0.287001 -0.637781,0.419872 -0.403928,0.138186 -1.296822,0.138186 h -1.302137 v -1.126746 q 0.499596,0 0.643096,-0.04783 0.143501,-0.05315 0.143501,-0.228538 0,-0.085038 -0.132871,-0.7387636 l -1.17458,-5.8994766 h 1.950547 l 0.70156,4.7567852 0.34015,-4.7567852 z"
         style="font-family:Impact;-inkscape-font-specification:Impact"
         id="path1068" />
    </g>
  </g>
  <g
     inkscape:groupmode="layer"
     id="Football"
     inkscape:label="Football"
     style="display:inline">
    <g
       inkscape:groupmode="layer"
       id="Leather"
       inkscape:label="Leather" />
    <ellipse
       style="fill:#502d16;stroke:#000064;stroke-width:0.358061;stroke-opacity:0.104895;paint-order:markers stroke fill"
       id="path11345"
       cx="-130.25"
       cy="-7.5000014"
       rx="1.6584705"
       ry="2.445971"
       transform="scale(-1)" />
    <g
       inkscape:groupmode="layer"
       id="Stripes"
       inkscape:label="Stripes">
      <rect
         style="fill:#ffffff;stroke:#000064;stroke-width:0.320936;stroke-opacity:0.104895;paint-order:markers stroke fill"
         id="rect11435"
         width="2.9962575"
         height="0.37906411"
         x="128.74329"
         y="-8.9449577"
         transform="scale(1,-1)" />
      <rect
         style="fill:#ffffff;stroke:#000064;stroke-width:0.321167;stroke-opacity:0.104895;paint-order:markers stroke fill"
         id="rect11435-8"
         width="3.0024152"
         height="0.37883261"
         x="128.74968"
         y="-6.4948416"
         transform="scale(1,-1)" />
    </g>
    <g
       inkscape:groupmode="layer"
       id="Laces"
       inkscape:label="Laces">
      <rect
         style="fill:#ffffff;stroke:#000064;stroke-width:0.35;stroke-opacity:0.104895;paint-order:markers stroke fill"
         id="rect11567"
         width="0.072287902"
         height="1.8071975"
         x="-130.50288"
         y="6.609911"
         transform="scale(-1,1)" />
      <rect
         style="fill:#ffffff;stroke:#000064;stroke-width:0.330203;stroke-opacity:0.104895;paint-order:markers stroke fill"
         id="rect11596"
         width="0.48966879"
         height="0.12822931"
         x="-130.72174"
         y="8.102603"
         transform="scale(-1,1)" />
      <rect
         style="fill:#ffffff;stroke:#000064;stroke-width:0.330203;stroke-opacity:0.104895;paint-order:markers stroke fill"
         id="rect11596-4"
         width="0.48966879"
         height="0.12822931"
         x="-130.72174"
         y="7.7526031"
         transform="scale(-1,1)" />
      <rect
         style="fill:#ffffff;stroke:#000064;stroke-width:0.330203;stroke-opacity:0.104895;paint-order:markers stroke fill"
         id="rect11596-6"
         width="0.48966879"
         height="0.12822931"
         x="-130.72174"
         y="7.4026027"
         transform="scale(-1,1)" />
      <rect
         style="fill:#ffffff;stroke:#000064;stroke-width:0.330203;stroke-opacity:0.104895;paint-order:markers stroke fill"
         id="rect11596-65"
         width="0.48966879"
         height="0.12822931"
         x="-130.72174"
         y="7.0526028"
         transform="scale(-1,1)" />
      <rect
         style="fill:#ffffff;stroke:#000064;stroke-width:0.330203;stroke-opacity:0.104895;paint-order:markers stroke fill"
         id="rect11596-9"
         width="0.48966879"
         height="0.12822931"
         x="-130.72174"
         y="6.7026029"
         transform="scale(-1,1)" />
    </g>
  </g>
  <metadata
     id="metadata15494">
    <rdf:RDF>
      <cc:Work
         rdf:about="">
        <dc:title>Fantasy Draft Banner</dc:title>
      </cc:Work>
    </rdf:RDF>
  </metadata>
</svg>
